<svg width="156" height="156" viewBox="0 0 156 156" fill="none" xmlns="http://www.w3.org/2000/svg">
<g filter="url(#filter0_d_406_146)">
<path d="M134 78C134 108.928 108.928 134 78 134C47.0721 134 22 108.928 22 78C22 47.0721 47.0721 22 78 22C108.928 22 134 47.0721 134 78Z" fill="white"/>
<path fill-rule="evenodd" clip-rule="evenodd" d="M96.7797 79.9795L92.8199 76.0197L77.9998 90.8398L63.1797 76.0197L59.2199 79.9795L77.9998 98.7594L96.7797 79.9795Z" fill="#33363F"/>
<path fill-rule="evenodd" clip-rule="evenodd" d="M96.7797 63.1795L92.8199 59.2197L77.9998 74.0398L63.1797 59.2197L59.2199 63.1795L77.9998 81.9594L96.7797 63.1795Z" fill="#33363F"/>
</g>
<defs>
<filter id="filter0_d_406_146" x="0" y="0" width="156" height="156" filterUnits="userSpaceOnUse" color-interpolation-filters="sRGB">
<feFlood flood-opacity="0" result="BackgroundImageFix"/>
<feColorMatrix in="SourceAlpha" type="matrix" values="0 0 0 0 0 0 0 0 0 0 0 0 0 0 0 0 0 0 127 0" result="hardAlpha"/>
<feOffset/>
<feGaussianBlur stdDeviation="11"/>
<feComposite in2="hardAlpha" operator="out"/>
<feColorMatrix type="matrix" values="0 0 0 0 0.6 0 0 0 0 0.6 0 0 0 0 0.6 0 0 0 0.25 0"/>
<feBlend mode="normal" in2="BackgroundImageFix" result="effect1_dropShadow_406_146"/>
<feBlend mode="normal" in="SourceGraphic" in2="effect1_dropShadow_406_146" result="shape"/>
</filter>
</defs>
</svg>
