<svg width="156" height="156" viewBox="0 0 156 156" fill="none" xmlns="http://www.w3.org/2000/svg">
<g filter="url(#filter0_d_455_2)">
<path d="M22 78C22 47.0721 47.0721 22 78 22C108.928 22 134 47.0721 134 78C134 108.928 108.928 134 78 134C47.0721 134 22 108.928 22 78Z" fill="white"/>
<path fill-rule="evenodd" clip-rule="evenodd" d="M59.2203 76.0205L63.1801 79.9803L78.0002 65.1602L92.8203 79.9803L96.7801 76.0205L78.0002 57.2406L59.2203 76.0205Z" fill="#33363F"/>
<path fill-rule="evenodd" clip-rule="evenodd" d="M59.2203 92.8205L63.1801 96.7803L78.0002 81.9602L92.8203 96.7803L96.7801 92.8205L78.0002 74.0406L59.2203 92.8205Z" fill="#33363F"/>
</g>
<defs>
<filter id="filter0_d_455_2" x="0" y="0" width="156" height="156" filterUnits="userSpaceOnUse" color-interpolation-filters="sRGB">
<feFlood flood-opacity="0" result="BackgroundImageFix"/>
<feColorMatrix in="SourceAlpha" type="matrix" values="0 0 0 0 0 0 0 0 0 0 0 0 0 0 0 0 0 0 127 0" result="hardAlpha"/>
<feOffset/>
<feGaussianBlur stdDeviation="11"/>
<feComposite in2="hardAlpha" operator="out"/>
<feColorMatrix type="matrix" values="0 0 0 0 0.6 0 0 0 0 0.6 0 0 0 0 0.6 0 0 0 0.25 0"/>
<feBlend mode="normal" in2="BackgroundImageFix" result="effect1_dropShadow_455_2"/>
<feBlend mode="normal" in="SourceGraphic" in2="effect1_dropShadow_455_2" result="shape"/>
</filter>
</defs>
</svg>
